<svg class="animated" id="freepik_stories-save-time" xmlns="http://www.w3.org/2000/svg" viewBox="0 0 500 500" version="1.1" xmlns:xlink="http://www.w3.org/1999/xlink" xmlns:svgjs="http://svgjs.com/svgjs"><style>svg#freepik_stories-save-time:not(.animated) .animable {opacity: 0;}svg#freepik_stories-save-time.animated #freepik--Clocks--inject-428 {animation: 3s Infinite  linear floating;animation-delay: 0s;}            @keyframes floating {                0% {                    opacity: 1;                    transform: translateY(0px);                }                50% {                    transform: translateY(-10px);                }                100% {                    opacity: 1;                    transform: translateY(0px);                }            }        </style><g id="freepik--background-simple--inject-428" class="animable" style="transform-origin: 250.851px 240.82px;"><path d="M479.82,290.42c-15.41,41.28-46.9,86-91.22,99.19-67,20-75,74-194.89,69a242.43,242.43,0,0,1-51.85-7.6,203.26,203.26,0,0,1-24.39-8.11C47.41,414.48,10.86,352,7.83,286.67c-4-86,56-126.91,94.94-150.9s86-116.94,203.89-112.94A234.18,234.18,0,0,1,360,30.61c39.68,10.74,80,34.5,103.47,69.23,1.76,2.61,3.43,5.28,5,8C499.84,161.06,500.83,234.15,479.82,290.42Z" style="fill: rgb(0, 255, 136); transform-origin: 250.851px 240.82px;" id="el9pl1ytkrcwm" class="animable"></path><g id="el76y3et0gq9"><path d="M479.82,290.42c-15.41,41.28-46.9,86-91.22,99.19-67,20-75,74-194.89,69a242.43,242.43,0,0,1-51.85-7.6,203.26,203.26,0,0,1-24.39-8.11C47.41,414.48,10.86,352,7.83,286.67c-4-86,56-126.91,94.94-150.9s86-116.94,203.89-112.94A234.18,234.18,0,0,1,360,30.61c39.68,10.74,80,34.5,103.47,69.23,1.76,2.61,3.43,5.28,5,8C499.84,161.06,500.83,234.15,479.82,290.42Z" style="fill: rgb(255, 255, 255); opacity: 0.7; transform-origin: 250.851px 240.82px;" class="animable"></path></g></g><g id="freepik--Clouds--inject-428" class="animable" style="transform-origin: 240.7px 173.793px;"><g id="el2t0lxstd4u7"><g style="opacity: 0.3; transform-origin: 240.7px 173.793px;" class="animable"><path d="M421.38,76.53s-14.7-35.71-55.32-37.11S326.85,59.73,317.74,66s-17.5-9.1-31.51-4.2-11.9,10.5-18.21,16.1-19.6-.7-25.2,3.51a55.68,55.68,0,0,0-9.81,9.8s-9.8-3.5-14,0l-4.21,3.5h243s-1.4-12.6-12.61-16.81S429.09,79.33,421.38,76.53Z" style="fill: none; stroke: rgb(0, 0, 0); stroke-linecap: round; stroke-linejoin: round; transform-origin: 336.3px 67.0326px;" id="elh7poiugxbqn" class="animable"></path><path d="M153.76,193.33S144.1,169.87,117.42,169s-25.77,13.34-31.75,17.48-11.51-6-20.71-2.76-7.82,6.9-12,10.58-12.88-.46-16.56,2.3A36.54,36.54,0,0,0,30,203s-6.44-2.3-9.2,0L18,205.3H177.69s-.92-8.29-8.28-11.05S158.83,195.17,153.76,193.33Z" style="fill: none; stroke: rgb(0, 0, 0); stroke-linecap: round; stroke-linejoin: round; transform-origin: 97.845px 187.131px;" id="elhq5m11kzoha" class="animable"></path><path d="M439.47,296.27s-9.66-23.46-36.35-24.38-25.76,13.34-31.74,17.48-11.51-6-20.71-2.76-7.82,6.9-12,10.58-12.89-.46-16.57,2.3a36.69,36.69,0,0,0-6.44,6.44s-6.44-2.3-9.2,0l-2.76,2.3H463.4s-.92-8.28-8.28-11S444.53,298.11,439.47,296.27Z" style="fill: none; stroke: rgb(0, 0, 0); stroke-linecap: round; stroke-linejoin: round; transform-origin: 383.55px 290.039px;" id="el2z3d5kyq7zf" class="animable"></path></g></g></g><g id="freepik--Plant--inject-428" class="animable" style="transform-origin: 426.82px 322.065px;"><path d="M389.12,265.93s-2.77,7.62-8.65,8.66-16.28-10.39-9.7-16.27S386.35,261.78,389.12,265.93Z" style="fill: rgb(0, 255, 136); stroke: rgb(38, 50, 56); stroke-linecap: round; stroke-linejoin: round; transform-origin: 378.891px 265.543px;" id="els2ssulgnw7e" class="animable"></path><path d="M398.13,228.54s-8.66,21.12-5.2,31.51,24.94,18,31.17,4.5-7.62-32.55-12.81-36.71S399.86,225.07,398.13,228.54Z" style="fill: rgb(0, 255, 136); stroke: rgb(38, 50, 56); stroke-linecap: round; stroke-linejoin: round; transform-origin: 408.897px 248.539px;" id="elykok7up4tr" class="animable"></path><path d="M448.68,237.54s-14.89,13.5-16.62,27,8.31,18.35,18.7,16.62,15.59-28.05,12.47-40.17S448.68,237.54,448.68,237.54Z" style="fill: rgb(0, 255, 136); stroke: rgb(38, 50, 56); stroke-linecap: round; stroke-linejoin: round; transform-origin: 447.997px 258.016px;" id="els9oz6s5fhln" class="animable"></path><path d="M451.45,312.34s-16.62.69-17.31,8.65,7.27,9.7,15.24,2.77S458.38,312.68,451.45,312.34Z" style="fill: rgb(0, 255, 136); stroke: rgb(38, 50, 56); stroke-linecap: round; stroke-linejoin: round; transform-origin: 445.081px 320.213px;" id="elrxorfrv2898" class="animable"></path><path d="M434.42,322.89s13.1-6,19-7" style="fill: none; stroke: rgb(38, 50, 56); stroke-miterlimit: 10; transform-origin: 443.92px 319.39px;" id="el8x6tqa7sdz5" class="animable"></path><path d="M455.16,364.45s-12.21-11.3-18.35-6.18-1.75,12,8.78,12.76S459.8,369.61,455.16,364.45Z" style="fill: rgb(0, 255, 136); stroke: rgb(38, 50, 56); stroke-linecap: round; stroke-linejoin: round; transform-origin: 445.569px 364.058px;" id="elmc8zob21le" class="animable"></path><path d="M435.66,359.81s13.49,5.06,18.38,8.51" style="fill: none; stroke: rgb(38, 50, 56); stroke-miterlimit: 10; transform-origin: 444.85px 364.065px;" id="eltuwviu8gvx" class="animable"></path><path d="M390.76,361.12s16.83-15.57,25.29-8.51,2.41,16.53-12.1,17.59S384.37,368.23,390.76,361.12Z" style="fill: rgb(0, 255, 136); stroke: rgb(38, 50, 56); stroke-linecap: round; stroke-linejoin: round; transform-origin: 403.979px 360.59px;" id="el9q09fefvyzj" class="animable"></path><path d="M417.64,354.72s-18.59,7-25.34,11.74" style="fill: none; stroke: rgb(38, 50, 56); stroke-miterlimit: 10; transform-origin: 404.97px 360.59px;" id="elny8um5mad9a" class="animable"></path><path d="M410.25,329s-1.73,8.31-8,11.42-17.31-3.46-11.42-13.5S407.13,324.8,410.25,329Z" style="fill: rgb(0, 255, 136); stroke: rgb(38, 50, 56); stroke-linecap: round; stroke-linejoin: round; transform-origin: 399.702px 331.623px;" id="elmffmqj7wq7r" class="animable"></path><path d="M395.7,303s-3.11-6.93-15.23-2.43-17,11.43-9.35,13.85S395.7,303,395.7,303Z" style="fill: rgb(0, 255, 136); stroke: rgb(38, 50, 56); stroke-linecap: round; stroke-linejoin: round; transform-origin: 381.575px 306.877px;" id="elh9kdf8698pq" class="animable"></path><path d="M393.38,302.67s-12.84,1.39-19.78,7.29" style="fill: none; stroke: rgb(38, 50, 56); stroke-miterlimit: 10; transform-origin: 383.49px 306.315px;" id="elcvl7l8pja9r" class="animable"></path><path d="M430.33,219.88s2.08,4.85,6.24,3.81,5.19-7.27,11.77-5.54,12.12,9.35,12.12,5.89-8.31-12.47-17.66-12.47S430.68,215.38,430.33,219.88Z" style="fill: rgb(0, 255, 136); stroke: rgb(38, 50, 56); stroke-linecap: round; stroke-linejoin: round; transform-origin: 445.395px 218.25px;" id="elgroz3qjhmxi" class="animable"></path><path d="M395.7,303s14.91-2.87,21.12,13.69a45.93,45.93,0,0,1,1.56,5.07" style="fill: none; stroke: rgb(38, 50, 56); stroke-miterlimit: 10; transform-origin: 407.04px 312.285px;" id="elwvk4lgmsxrl" class="animable"></path><path d="M457.93,287s3.12-6.93,15.24-2.43,17,11.43,9.35,13.85S457.93,287,457.93,287Z" style="fill: rgb(0, 255, 136); stroke: rgb(38, 50, 56); stroke-linecap: round; stroke-linejoin: round; transform-origin: 472.06px 290.877px;" id="el2u8ocup2haf" class="animable"></path><path d="M460.7,287.4s12.49-.69,18.39,6.6" style="fill: none; stroke: rgb(38, 50, 56); stroke-miterlimit: 10; transform-origin: 469.895px 290.691px;" id="eldl47oga20wu" class="animable"></path><path d="M457.93,287a19.21,19.21,0,0,0-10.32,1.4" style="fill: none; stroke: rgb(38, 50, 56); stroke-miterlimit: 10; transform-origin: 452.77px 287.606px;" id="elpsgpijvy9vb" class="animable"></path><path d="M403.65,274.52c-7.31-7.46-14.53-8.59-14.53-8.59s-10.66-2.82-14.82,1" style="fill: none; stroke: rgb(38, 50, 56); stroke-miterlimit: 10; transform-origin: 388.975px 269.724px;" id="el67ikwzzixah" class="animable"></path><line x1="405.14" y1="236.17" x2="404.49" y2="233.27" style="fill: none; stroke: rgb(38, 50, 56); stroke-miterlimit: 10; transform-origin: 404.815px 234.72px;" id="elhewtjsw7q06" class="animable"></line><path d="M422,389.25s1.55-59.63,0-77.74-8.8-39.33-8.8-39.33l-7.38-33" style="fill: none; stroke: rgb(38, 50, 56); stroke-miterlimit: 10; transform-origin: 414.254px 314.215px;" id="elhvwkg1gzfgj" class="animable"></path><line x1="452.77" y1="248.97" x2="454.11" y2="246.11" style="fill: none; stroke: rgb(38, 50, 56); stroke-miterlimit: 10; transform-origin: 453.44px 247.54px;" id="el1a87dswt4hy" class="animable"></line><path d="M425.62,389.19s.52-54.4,2.59-69.92,10.35-39.84,10.35-39.84l12.7-27.22" style="fill: none; stroke: rgb(38, 50, 56); stroke-miterlimit: 10; transform-origin: 438.44px 320.7px;" id="ellufoc95whvb" class="animable"></path><path d="M434.42,322.89s-3.63,31.19-5.7,66.37" style="fill: none; stroke: rgb(38, 50, 56); stroke-miterlimit: 10; transform-origin: 431.57px 356.075px;" id="el43us1ac90nw" class="animable"></path><path d="M416.82,389.19s1-49.74-1-56.47-5.54-3.76-5.54-3.76-9.58,1.12-13.05,6.68" style="fill: none; stroke: rgb(38, 50, 56); stroke-miterlimit: 10; transform-origin: 407.15px 358.749px;" id="el0g2as9j0dt2r" class="animable"></path><path d="M419.2,325.62c2.71,15.17.21,63.62.21,63.62" style="fill: none; stroke: rgb(38, 50, 56); stroke-miterlimit: 10; transform-origin: 419.831px 357.43px;" id="el1lmen81d2bt" class="animable"></path><path d="M444.68,290a21.59,21.59,0,0,0-7.87,10.66c-6.21,16.56-5.5,88.62-5.5,88.62" style="fill: none; stroke: rgb(38, 50, 56); stroke-miterlimit: 10; transform-origin: 437.983px 339.64px;" id="ele09msbajek" class="animable"></path><path d="M405.45,276.5a48.83,48.83,0,0,1,8.79,15.86c8.28,23.8,11.38,85.44,9.83,96.83" style="fill: none; stroke: rgb(38, 50, 56); stroke-miterlimit: 10; transform-origin: 414.953px 332.845px;" id="elasybklwlws6" class="animable"></path><path d="M426.48,298.77c-.5,30-.86,90.42-.86,90.42" style="fill: none; stroke: rgb(38, 50, 56); stroke-miterlimit: 10; transform-origin: 426.05px 343.98px;" id="elp5rqwwk49g" class="animable"></path><path d="M426.54,295c.35-19.87.75-39.31,1.15-49.76,1-26.91,2.64-25.4,2.64-25.4s1.92-6,12.67-5.35" style="fill: none; stroke: rgb(38, 50, 56); stroke-miterlimit: 10; transform-origin: 434.77px 254.72px;" id="elh53aq5hzwqn" class="animable"></path><path d="M413.29,317.72s-8.65-7.72-5.19-11.52,24.93-6.58,31.16-1.64-7.61,11.89-12.81,13.41S415,319,413.29,317.72Z" style="fill: rgb(0, 255, 136); stroke: rgb(38, 50, 56); stroke-linecap: round; stroke-linejoin: round; transform-origin: 424.062px 310.409px;" id="elf09fn509e77" class="animable"></path><path d="M421.29,311.4a15.28,15.28,0,0,0-.19,2.3" style="fill: none; stroke: rgb(38, 50, 56); stroke-miterlimit: 10; transform-origin: 421.195px 312.55px;" id="elf32apehhxcv" class="animable"></path><path d="M424.26,302.39a39.91,39.91,0,0,0-2.22,5.73" style="fill: none; stroke: rgb(38, 50, 56); stroke-miterlimit: 10; transform-origin: 423.15px 305.255px;" id="elr4vcgxqvn7g" class="animable"></path><path d="M413.29,368.19s-8.65-7.72-5.19-11.51S433,350.1,439.26,355s-7.61,11.9-12.81,13.42S415,369.46,413.29,368.19Z" style="fill: rgb(0, 255, 136); stroke: rgb(38, 50, 56); stroke-linecap: round; stroke-linejoin: round; transform-origin: 424.067px 360.873px;" id="eltlbsmzaedsg" class="animable"></path><path d="M424.26,352.86s-3.16,6.34-3.16,11.32" style="fill: none; stroke: rgb(38, 50, 56); stroke-miterlimit: 10; transform-origin: 422.68px 358.52px;" id="elh13zund7rdo" class="animable"></path><path d="M419.74,346.85s-5.88-5.24-3.53-7.82,16.93-4.47,21.16-1.12-5.17,8.08-8.7,9.11S420.91,347.71,419.74,346.85Z" style="fill: rgb(0, 255, 136); stroke: rgb(38, 50, 56); stroke-linecap: round; stroke-linejoin: round; transform-origin: 427.049px 341.884px;" id="elzhbsko4tw3h" class="animable"></path><path d="M427.19,336.44s-2.15,4.3-2.15,7.68" style="fill: none; stroke: rgb(38, 50, 56); stroke-miterlimit: 10; transform-origin: 426.115px 340.28px;" id="el28ldbbernl8" class="animable"></path><rect x="411.61" y="380.6" width="23.43" height="51.96" style="fill: rgb(38, 50, 56); stroke: rgb(38, 50, 56); stroke-linecap: round; stroke-linejoin: round; transform-origin: 423.325px 406.58px;" id="elmn1ctu63yo" class="animable"></rect></g><g id="freepik--piggy-bank--inject-428" class="animable" style="transform-origin: 158.824px 338.81px;"><g id="eln4dnx6oxlsp"><ellipse cx="261.02" cy="288.63" rx="29.02" ry="37.2" style="fill: rgb(0, 255, 136); stroke: rgb(38, 50, 56); stroke-miterlimit: 10; transform-origin: 261.02px 288.63px; transform: rotate(-11.06deg);" class="animable"></ellipse></g><path d="M123.12,253.55S100,217.85,73.06,223.63c-17.94,3.85-7.4,38-7.4,38" style="fill: rgb(0, 255, 136); stroke: rgb(38, 50, 56); stroke-miterlimit: 10; transform-origin: 92.8519px 242.313px;" id="elg8606q8wxse" class="animable"></path><path d="M71.68,265H71.6L70,264.56s-10.31-31.31,4.7-30.92c12.68.33,29.72,29.58,34.73,38.68C99.61,265.51,86,262.46,71.68,265Z" style="fill: rgb(38, 50, 56); stroke: rgb(38, 50, 56); stroke-miterlimit: 10; transform-origin: 87.9885px 252.978px;" id="elber3ihsfigs" class="animable"></path><path d="M183.28,417.41l6.32,27.88a19,19,0,0,0,18.56,14.82h0a19,19,0,0,0,18.56-14.82l11.13-49.07" style="fill: rgb(38, 50, 56); stroke: rgb(38, 50, 56); stroke-miterlimit: 10; transform-origin: 210.565px 428.165px;" id="eli9vrdfgefun" class="animable"></path><path d="M86.7,417.41l6.34,28a18.9,18.9,0,0,0,18.44,14.72h0a18.92,18.92,0,0,0,18.5-15l6.33-29.67" style="fill: rgb(38, 50, 56); stroke: rgb(38, 50, 56); stroke-miterlimit: 10; transform-origin: 111.505px 437.795px;" id="elr72trdvgnb" class="animable"></path><path d="M31,334c0,34.05,18,64.55,46.46,85.09,23.2,16.76,53.33,26.88,86.27,26.88,73.3,0,132.72-50.13,132.72-112s-59.42-112-132.72-112S31,272.19,31,334Z" style="fill: rgb(0, 255, 136); stroke: rgb(38, 50, 56); stroke-miterlimit: 10; transform-origin: 163.725px 333.97px;" id="elujwvp0dtgd" class="animable"></path><path d="M111.26,266.38c0,3.74-1.82,6.77-4.06,6.77s-4.06-3-4.06-6.77,1.82-6.77,4.06-6.77S111.26,262.64,111.26,266.38Z" style="fill: rgb(38, 50, 56); stroke: rgb(38, 50, 56); stroke-miterlimit: 10; transform-origin: 107.2px 266.38px;" id="elqslzbu9gkag" class="animable"></path><path d="M98.3,265.24s4.57-9.31,11.86-3.47" style="fill: none; stroke: rgb(38, 50, 56); stroke-miterlimit: 10; transform-origin: 104.23px 262.542px;" id="el1ltutd2wt8k" class="animable"></path><path d="M78.23,266.75c0,3.73-1.82,6.77-4.06,6.77s-4.06-3-4.06-6.77S71.93,260,74.17,260,78.23,263,78.23,266.75Z" style="fill: rgb(38, 50, 56); stroke: rgb(38, 50, 56); stroke-miterlimit: 10; transform-origin: 74.17px 266.76px;" id="elv5w6l3c1mck" class="animable"></path><path d="M65.27,265.6s4.57-9.31,11.87-3.47" style="fill: none; stroke: rgb(38, 50, 56); stroke-miterlimit: 10; transform-origin: 71.205px 262.902px;" id="elka3mgpjejyh" class="animable"></path><path d="M75.18,345.91s19.77.45,26.06-22" style="fill: rgb(0, 255, 136); stroke: rgb(38, 50, 56); stroke-miterlimit: 10; transform-origin: 88.21px 334.91px;" id="el9zimxbi24sm" class="animable"></path><path d="M88.64,283.64A151.71,151.71,0,0,0,64,278" style="fill: rgb(0, 255, 136); stroke: rgb(38, 50, 56); stroke-miterlimit: 10; transform-origin: 76.32px 280.82px;" id="el3m8uy1qbg9b" class="animable"></path><path d="M96.27,286.19s-1.58-.59-4.22-1.46" style="fill: rgb(0, 255, 136); stroke: rgb(38, 50, 56); stroke-miterlimit: 10; transform-origin: 94.16px 285.46px;" id="elcdhgzhkr7z7" class="animable"></path><path d="M55.39,388.48a113.49,113.49,0,0,0,26.38,26.38,128.77,128.77,0,0,0,22.46,13" style="fill: none; stroke: rgb(38, 50, 56); stroke-miterlimit: 10; transform-origin: 79.81px 408.17px;" id="el1oiu4fea84f" class="animable"></path><path d="M41,358.55A94.58,94.58,0,0,0,47.83,376" style="fill: rgb(255, 255, 255); stroke: rgb(38, 50, 56); stroke-miterlimit: 10; transform-origin: 44.415px 367.275px;" id="el8pys7k2rsrl" class="animable"></path><path d="M270,276.8a110.87,110.87,0,0,0-14.2-15.42" style="fill: none; stroke: rgb(38, 50, 56); stroke-miterlimit: 10; transform-origin: 262.9px 269.09px;" id="eljywueg8sbvd" class="animable"></path><path d="M276.34,381.9a91.88,91.88,0,0,0,0-95.79" style="fill: none; stroke: rgb(38, 50, 56); stroke-miterlimit: 10; transform-origin: 283.075px 334.005px;" id="elujf5qjey39" class="animable"></path><path d="M104.23,427.83a146.72,146.72,0,0,0,126.47-3.67" style="fill: none; stroke: rgb(38, 50, 56); stroke-miterlimit: 10; transform-origin: 167.465px 432.275px;" id="elex5umt1pivi" class="animable"></path><path d="M136.37,227.08a58.44,58.44,0,0,1,6.41,2.64c1.28.63,2.3,1.21,3.09,1.7q2.52-.3,5.07-.51,6.3-.56,12.78-.55A146.23,146.23,0,0,1,218,240.64c2.87,1.15,5.69,2.4,8.45,3.72a69.38,69.38,0,0,0-15.91-12.24,146.88,146.88,0,0,0-46.82-7.55A149.58,149.58,0,0,0,136.37,227.08Z" style="fill: gray; stroke: rgb(38, 50, 56); stroke-miterlimit: 10; transform-origin: 181.41px 234.465px;" id="el19taigdjdi2" class="animable"></path><path d="M142.78,229.72l8.16,1.19q6.3-.56,12.78-.55A146.23,146.23,0,0,1,218,240.64a75.71,75.71,0,0,0-7.46-4.83,147.16,147.16,0,0,0-46.82-7.55A151.81,151.81,0,0,0,142.78,229.72Z" style="fill: rgb(38, 50, 56); stroke: rgb(38, 50, 56); stroke-miterlimit: 10; transform-origin: 180.39px 234.45px;" id="elyss3c9cbeg" class="animable"></path><circle cx="54.03" cy="309.45" r="33.02" style="fill: rgb(0, 255, 136); stroke: rgb(38, 50, 56); stroke-miterlimit: 10; transform-origin: 54.03px 309.45px;" id="elqnow9euwe8" class="animable"></circle><ellipse cx="63.56" cy="309.95" rx="6.95" ry="11.47" style="fill: rgb(38, 50, 56); stroke: rgb(38, 50, 56); stroke-miterlimit: 10; transform-origin: 63.56px 309.95px;" id="el2rau7ylfcx" class="animable"></ellipse><ellipse cx="38.67" cy="308.16" rx="6.95" ry="11.47" style="fill: rgb(38, 50, 56); stroke: rgb(38, 50, 56); stroke-miterlimit: 10; transform-origin: 38.67px 308.16px;" id="el4ifoy4vqg5e" class="animable"></ellipse><path d="M215.31,417.41l6.32,27.88a19,19,0,0,0,18.56,14.82h0a19,19,0,0,0,18.56-14.82l11.13-49.07" style="fill: rgb(0, 255, 136); stroke: rgb(38, 50, 56); stroke-miterlimit: 10; transform-origin: 242.595px 428.165px;" id="elwn4xwiglsx" class="animable"></path><path d="M120.7,417.41l6.34,28a18.9,18.9,0,0,0,18.44,14.72h0a18.92,18.92,0,0,0,18.5-15l6.33-29.67" style="fill: rgb(0, 255, 136); stroke: rgb(38, 50, 56); stroke-miterlimit: 10; transform-origin: 145.505px 437.795px;" id="elmqoxseckjy" class="animable"></path><path d="M176,271.81s-3.34-41.43-31.74-53.12c-18.91-7.79-26.62,24.89-26.62,24.89" style="fill: rgb(0, 255, 136); stroke: rgb(38, 50, 56); stroke-miterlimit: 10; transform-origin: 146.82px 244.65px;" id="elm83owfrpv8m" class="animable"></path><path d="M121.59,249.77l-.08,0-1.34-1.32s6.46-30.35,20.42-21c11.78,7.85,12.74,40.65,12.75,50.67C147.65,266.94,136.42,256.45,121.59,249.77Z" style="fill: rgb(38, 50, 56); stroke: rgb(38, 50, 56); stroke-miterlimit: 10; transform-origin: 136.755px 251.891px;" id="elwq2qsmxnca" class="animable"></path></g><g id="freepik--Character--inject-428" class="animable" style="transform-origin: 310.672px 272.861px;"><path d="M216.93,316.89s-3.17,1.55-7.67,4.12-7.22,3.37-6.74,4.65,3.85,1.61,9.63,1.77a40.68,40.68,0,0,0,10.43-1.29c.64,0,5.3.16,7.06-.48s.49-5.46.49-5.46S219.63,315.83,216.93,316.89Z" style="fill: rgb(255, 255, 255); stroke: rgb(38, 50, 56); stroke-linecap: round; stroke-linejoin: round; transform-origin: 216.519px 322.078px;" id="elnwfjowzu31p" class="animable"></path><path d="M253,316.89s-3.18,1.55-7.68,4.12-7.22,3.37-6.74,4.65,3.86,1.61,9.63,1.77a40.68,40.68,0,0,0,10.43-1.29c.65,0,5.3.16,7.07-.48s.48-5.46.48-5.46S255.66,315.83,253,316.89Z" style="fill: rgb(255, 255, 255); stroke: rgb(38, 50, 56); stroke-linecap: round; stroke-linejoin: round; transform-origin: 252.585px 322.078px;" id="el8jgkpzslrm" class="animable"></path><path d="M269.6,196.38s4,8.85,3.83,17.71-9.09,44.76-8.64,49.19,4.43,8,4,18.61S265.45,309,265.45,309s1.69,5.41,1.25,7a25.65,25.65,0,0,0-.22,5.58s-2.92-2.15-5.58-2.15-9.65-1.48-9.65-2.14,2.46-6.92,2.46-6.92l.22-5.09s-4.21-35.93-5.1-43.24-4.2-42.1-4.2-42.1-7.54,43.87-7.76,45.42,1.11,10.64-1.33,17.28-4,22.82-4,26.37-.88,12.85-.88,12.85-4.43,0-6.87-1.11-4.21-2.88-4.87-3.1l-2-.67a24.86,24.86,0,0,1,.67-3.32,31.26,31.26,0,0,1,2.21-4.65l.67-29.69s-.45-16.39,0-19.05a32.54,32.54,0,0,0,.22-6.2c0-.89,0-33.91,1.11-41s1.41-16.25,1.41-16.25l43.34-5Z" style="fill: rgb(38, 50, 56); stroke: rgb(38, 50, 56); stroke-linecap: round; stroke-linejoin: round; transform-origin: 245.178px 256.84px;" id="eln8rurued7ka" class="animable"></path><path d="M267.5,189.58l2.1,6.8s-14.18,9.44-27.77,10.13-18-2.59-19-3.46.4-6.32.4-6.32,15.17,1.57,23-.35S267.5,189.58,267.5,189.58Z" style="fill: rgb(0, 255, 136); stroke: rgb(38, 50, 56); stroke-linecap: round; stroke-linejoin: round; transform-origin: 246.035px 198.092px;" id="elh4wc426gxzb" class="animable"></path><path d="M249.6,125.37s14.77,4,15.72,5.55-3.69,36.48-4.36,39.16,1.34,11,2.68,12.87,5.18,3.84,5.18,7-21.57,11-29.26,11-16.25-1.28-17.09-2.12-.13-3.73-.13-4.4.17-19.56.17-19.56-4.35-5.18-5.35-11.36.36-14.06.36-14.06-1.27-11.27-.16-15.56,9.53-7.3,9.53-7.3S235.15,123.14,249.6,125.37Z" style="fill: rgb(0, 255, 136); stroke: rgb(38, 50, 56); stroke-linecap: round; stroke-linejoin: round; transform-origin: 242.806px 162.785px;" id="el7mp5bga0kd8" class="animable"></path><path d="M237.37,172.67A24.69,24.69,0,0,1,232,169" style="fill: none; stroke: rgb(38, 50, 56); stroke-linecap: round; stroke-linejoin: round; transform-origin: 234.685px 170.835px;" id="el8v56sfticci" class="animable"></path><path d="M241.26,174a7.67,7.67,0,0,1-1.9-.44" style="fill: none; stroke: rgb(38, 50, 56); stroke-linecap: round; stroke-linejoin: round; transform-origin: 240.31px 173.78px;" id="elichp61yct0m" class="animable"></path><path d="M224.07,125.39s-1.61,4.63-.43,6.79,5.71,2.47,5.71,2.47a5.74,5.74,0,0,1,.54-3.66c1-2.37,2.58-6.14,2.58-6.14Z" style="fill: rgb(38, 50, 56); stroke: rgb(38, 50, 56); stroke-linecap: round; stroke-linejoin: round; transform-origin: 227.839px 129.75px;" id="el5etbvxzgrt8" class="animable"></path><path d="M213.41,110.32s.21,3.66.86,4.52,2.48,0,2.8,2.37.43,6.35,1.29,6.68a9.66,9.66,0,0,0,3.23-.11s4,3.66,5.17,4.2,1.51.64,2.37,0l3.13-2.37s-1.73,5-1.08,6.46,3,4,5.71,1.51,4.3-8.08,4.3-8.08l-7.1-20.14-19.5-4.63S212.44,108.81,213.41,110.32Z" style="fill: rgb(255, 255, 255); stroke: rgb(38, 50, 56); stroke-linecap: round; stroke-linejoin: round; transform-origin: 227.174px 117.679px;" id="eluyor2bc2u5p" class="animable"></path><path d="M233.12,108.7s3.44,15.19,4.31,20.89-.65,8-.65,8,8.61-.54,11.63-5.81,5.6-8.19,3.88-13.25-6.47-21.11-11-26.6S226.76,85.12,223,85.76s-8.07,5.6-10,9.26-3.23,11-4.52,11.74-2.48,2.59-.54,3.13a25,25,0,0,0,5.49.43,27.75,27.75,0,0,1,.75-5.07c.54-1.61,1-2.58,1-2.58s.65,1.83,7.86,4,9.91,1.08,9.91,1.08Z" style="fill: rgb(38, 50, 56); stroke: rgb(38, 50, 56); stroke-linecap: round; stroke-linejoin: round; transform-origin: 229.88px 111.601px;" id="el7bf2lvoqnzk" class="animable"></path><path d="M215.13,102.67s6.79,9.26,18.53,7.22" style="fill: none; stroke: rgb(38, 50, 56); stroke-linecap: round; stroke-linejoin: round; transform-origin: 224.395px 106.427px;" id="elmwcd83he5et" class="animable"></path><path d="M218,113.44s1.62-2.59,4.31-1.51" style="fill: none; stroke: rgb(38, 50, 56); stroke-linecap: round; stroke-linejoin: round; transform-origin: 220.155px 112.553px;" id="el6b30a2ml07r" class="animable"></path><path d="M226.44,120a2.92,2.92,0,0,1-1.08,2.58" style="fill: none; stroke: rgb(38, 50, 56); stroke-linecap: round; stroke-linejoin: round; transform-origin: 225.908px 121.29px;" id="el3kyh0ozpkpq" class="animable"></path><path d="M220.67,116.19c.27.73.82,1.19,1.24,1s.55-.86.28-1.59-.81-1.19-1.23-1S220.41,115.46,220.67,116.19Z" style="fill: rgb(38, 50, 56); transform-origin: 221.434px 115.895px;" id="elep0djjmr2uu" class="animable"></path><polygon points="232.26 125.61 234.95 122.81 233.12 130.67 232.26 125.61" style="fill: rgb(38, 50, 56); stroke: rgb(38, 50, 56); stroke-linecap: round; stroke-linejoin: round; transform-origin: 233.605px 126.74px;" id="elp1cnvtgrolr" class="animable"></polygon><path d="M175.1,152.42a7,7,0,0,1-1.77-1.94c-.64-1.12-1.61.65-1.45,1.77a8.49,8.49,0,0,0,1.29,2.74Z" style="fill: rgb(255, 255, 255); stroke: rgb(38, 50, 56); stroke-linecap: round; stroke-linejoin: round; transform-origin: 173.481px 152.556px;" id="elkqd1mwhkrs" class="animable"></path><g id="el5kwagmvdjbu"><circle cx="200.65" cy="183.73" r="40.84" style="fill: rgb(133, 133, 133); stroke: rgb(38, 50, 56); stroke-linecap: round; stroke-linejoin: round; transform-origin: 200.65px 183.73px; transform: rotate(-80.66deg);" class="animable"></circle></g><g id="elnolbhavfe5e"><circle cx="200.65" cy="182.81" r="35.74" style="fill: rgb(255, 255, 255); stroke: rgb(38, 50, 56); stroke-linecap: round; stroke-linejoin: round; transform-origin: 200.65px 182.81px; transform: rotate(-80.68deg);" class="animable"></circle></g><polyline points="186.48 189.67 200.65 183.73 200.65 216.44" style="fill: none; stroke: rgb(38, 50, 56); stroke-linecap: round; stroke-linejoin: round; transform-origin: 193.565px 200.085px;" id="elqudo8195m5o" class="animable"></polyline><circle cx="200.65" cy="182.81" r="2.21" style="fill: rgb(133, 133, 133); stroke: rgb(38, 50, 56); stroke-linecap: round; stroke-linejoin: round; transform-origin: 200.65px 182.81px;" id="eltw8k4a4jr4" class="animable"></circle><path d="M256.43,128.7s9.05.64,10.8,1.91,13.46,36.12,14.13,40.64-.84,5-1.68,5-20.39,6.35-22.73,6.86-2.84.16-3.68-.51-4.85-5.51-3.68-8.35a5.32,5.32,0,0,1,3.18-3.35l12.7-4.68-10-17.84" style="fill: rgb(0, 255, 136); stroke: rgb(38, 50, 56); stroke-linecap: round; stroke-linejoin: round; transform-origin: 265.452px 156.027px;" id="elyuxm3flct9f" class="animable"></path><path d="M271.47,168.2a11.68,11.68,0,0,0-6-2" style="fill: none; stroke: rgb(38, 50, 56); stroke-linecap: round; stroke-linejoin: round; transform-origin: 268.47px 167.2px;" id="els0zv98y55o" class="animable"></path><path d="M269.65,165.47a14.37,14.37,0,0,1,5.46,3.28" style="fill: none; stroke: rgb(38, 50, 56); stroke-linecap: round; stroke-linejoin: round; transform-origin: 272.38px 167.11px;" id="eldd2yp5tssc" class="animable"></path><path d="M243.07,176.76s5.69-1.84,6.52-2.5,2.68-.17,3.68,2.17,0,6.18,0,6.18l-6.69,1.68s-1.67.33-3.34-2.51S241.23,176.93,243.07,176.76Z" style="fill: rgb(0, 255, 136); stroke: rgb(38, 50, 56); stroke-linecap: round; stroke-linejoin: round; transform-origin: 247.773px 179.146px;" id="elz8l0svxpkrf" class="animable"></path><path d="M245.4,177.24s-4.49-.58-5.07-.72-2.32-2-3-2.61-3,.28-4.78-1.75-2.47.14-2.32,1.3,1.74,1.74,2.75,2.32a6.73,6.73,0,0,1,1.89,2.19s-3.33,2.6-5.07,3-6.37,1.45-6.51,2,.43.73,1.16.73,5.35-.29,5.35-.29l3.33-.58-5.21,2.46s-4.2.58-4.2,1.16.73.87,1.6.72,4.19.15,5.35-.29,3.92-1.22,3.92-1.22-4.79,3.25-5.37,3.39-3.18.44-2.6,1a2.65,2.65,0,0,0,3,.58l4-1.6a5.78,5.78,0,0,1-1.16,1.6c-.58.43-.86,1.15-.14,1.15s3.18-1.73,4.2-2.6a32,32,0,0,0,2.89-3.33l4.06-2,2-.87A6.59,6.59,0,0,0,245.4,177.24Z" style="fill: rgb(255, 255, 255); stroke: rgb(38, 50, 56); stroke-linecap: round; stroke-linejoin: round; transform-origin: 234.681px 181.553px;" id="elns1pio7x52b" class="animable"></path><path d="M233.67,189.11a4.11,4.11,0,0,0,2.23-1.24" style="fill: none; stroke: rgb(38, 50, 56); stroke-linecap: round; stroke-linejoin: round; transform-origin: 234.785px 188.49px;" id="el6diwehenc96" class="animable"></path><path d="M169.47,152.74s-2.41,1.45-1.45,2.89,3.86,3.54,4,2.42-.8-2.42-1.12-3.7S170,151.93,169.47,152.74Z" style="fill: rgb(255, 255, 255); stroke: rgb(38, 50, 56); stroke-linecap: round; stroke-linejoin: round; transform-origin: 169.914px 155.418px;" id="elwmmhgsuspn" class="animable"></path><path d="M165,159.31c.32,1.77,4.35,2.41,4.67,1.93a.83.83,0,0,0,0-.63,2.65,2.65,0,0,0-1.93-1.86C166.53,158.43,164.83,158.18,165,159.31Z" style="fill: rgb(255, 255, 255); stroke: rgb(38, 50, 56); stroke-linecap: round; stroke-linejoin: round; transform-origin: 167.36px 159.937px;" id="elbjkr6exqyt" class="animable"></path><path d="M164.24,161.82c.32,1.77,3.62,1.69,3.94,1.21.09-.14.81.36.74.1a2.65,2.65,0,0,0-1.93-1.86C165.74,160.94,164,160.69,164.24,161.82Z" style="fill: rgb(255, 255, 255); stroke: rgb(38, 50, 56); stroke-linecap: round; stroke-linejoin: round; transform-origin: 166.571px 162.158px;" id="el0vlcizi9u34i" class="animable"></path><path d="M168,155.63s-1.77,1.29-1.45,2.09,2.25,2.1,3.06,2.58,1.93.16,1.45-.81a20.58,20.58,0,0,0-1.29-2.09Z" style="fill: rgb(255, 255, 255); stroke: rgb(38, 50, 56); stroke-linecap: round; stroke-linejoin: round; transform-origin: 168.843px 158.075px;" id="elcrtxyl9tjbb" class="animable"></path><polygon points="435.25 422.53 435.25 399.56 402.88 399.56 402.88 376.6 370.52 376.6 370.52 353.63 341.46 353.63 341.46 326.02 253.67 326.02 253.67 460.05 467.62 460.11 467.62 422.53 435.25 422.53" style="fill: rgb(38, 50, 56); stroke: rgb(38, 50, 56); stroke-linecap: round; stroke-linejoin: round; transform-origin: 360.645px 393.065px;" id="elewzjrtjrwwt" class="animable"></polygon><polygon points="370.13 422.53 370.13 399.56 337.76 399.56 337.76 376.6 305.39 376.6 305.39 353.63 276.34 353.63 276.34 326.02 188.55 326.02 188.55 460.05 402.49 460.11 402.49 422.53 370.13 422.53" style="fill: rgb(196, 196, 196); stroke: rgb(38, 50, 56); stroke-linecap: round; stroke-linejoin: round; transform-origin: 295.52px 393.065px;" id="elu64st86oqe" class="animable"></polygon><rect x="305.39" y="353.64" width="65.12" height="22.96" style="fill: rgb(38, 50, 56); stroke: rgb(38, 50, 56); stroke-linecap: round; stroke-linejoin: round; transform-origin: 337.95px 365.12px;" id="eljzcpx2if22" class="animable"></rect><rect x="337.88" y="376.67" width="65.12" height="22.96" style="fill: rgb(38, 50, 56); stroke: rgb(38, 50, 56); stroke-linecap: round; stroke-linejoin: round; transform-origin: 370.44px 388.15px;" id="elk8cifdztzp" class="animable"></rect><rect x="370.09" y="399.46" width="65.12" height="22.96" style="fill: rgb(38, 50, 56); stroke: rgb(38, 50, 56); stroke-linecap: round; stroke-linejoin: round; transform-origin: 402.65px 410.94px;" id="eld910k6mqb96" class="animable"></rect></g><g id="freepik--Floor--inject-428" class="animable" style="transform-origin: 258.035px 460.11px;"><line x1="30.78" y1="460.11" x2="485.29" y2="460.11" style="fill: none; stroke: rgb(38, 50, 56); stroke-miterlimit: 10; transform-origin: 258.035px 460.11px;" id="elioyhy5hxx6p" class="animable"></line></g><g id="freepik--Clocks--inject-428" class="animable animator-active" style="transform-origin: 255.72px 249.409px;"><circle cx="242.93" cy="392.55" r="40.84" style="fill: rgb(0, 255, 136); stroke: rgb(38, 50, 56); stroke-miterlimit: 10; transform-origin: 242.93px 392.55px;" id="ellef270cu5t" class="animable"></circle><g id="elevurd58a0df"><circle cx="243.85" cy="392.6" r="35.74" style="fill: rgb(255, 255, 255); stroke: rgb(38, 50, 56); stroke-linecap: round; stroke-linejoin: round; transform-origin: 243.85px 392.6px; transform: rotate(-22.07deg);" class="animable"></circle></g><polyline points="249.74 408.54 242.93 392.55 221.25 414.58" style="fill: none; stroke: rgb(38, 50, 56); stroke-linecap: round; stroke-linejoin: round; transform-origin: 235.495px 403.565px;" id="elbk1rh8ac3su" class="animable"></polyline><path d="M243.72,394.81a2.21,2.21,0,1,1,2.33-2.08A2.21,2.21,0,0,1,243.72,394.81Z" style="fill: rgb(133, 133, 133); stroke: rgb(38, 50, 56); stroke-linecap: round; stroke-linejoin: round; transform-origin: 243.844px 392.603px;" id="elfsneo5y2444" class="animable"></path><g id="elqhxz4oqgpm"><circle cx="309.09" cy="429.17" r="27.45" style="fill: rgb(133, 133, 133); stroke: rgb(38, 50, 56); stroke-linecap: round; stroke-linejoin: round; transform-origin: 309.09px 429.17px; transform: rotate(-84.39deg);" class="animable"></circle></g><circle cx="308.62" cy="429.56" r="24.02" style="fill: rgb(255, 255, 255); stroke: rgb(38, 50, 56); stroke-linecap: round; stroke-linejoin: round; transform-origin: 308.62px 429.56px;" id="el6ilk3hafuea" class="animable"></circle><polyline points="298.89 421.7 308.62 429.56 315.01 409.62" style="fill: none; stroke: rgb(38, 50, 56); stroke-linecap: round; stroke-linejoin: round; transform-origin: 306.95px 419.59px;" id="elw9zbztct6b" class="animable"></polyline><path d="M309.56,430.7a1.48,1.48,0,1,0-2.09-.2A1.48,1.48,0,0,0,309.56,430.7Z" style="fill: rgb(133, 133, 133); stroke: rgb(38, 50, 56); stroke-linecap: round; stroke-linejoin: round; transform-origin: 308.614px 429.562px;" id="el7k36x2e7p3r" class="animable"></path><g id="el74h6h68wxfq"><circle cx="51.88" cy="414.23" r="27.45" style="fill: rgb(133, 133, 133); stroke: rgb(38, 50, 56); stroke-linecap: round; stroke-linejoin: round; transform-origin: 51.88px 414.23px; transform: rotate(-52.61deg);" class="animable"></circle></g><g id="elukkpps29u8"><circle cx="52.3" cy="413.77" r="24.02" style="fill: rgb(255, 255, 255); stroke: rgb(38, 50, 56); stroke-linecap: round; stroke-linejoin: round; transform-origin: 52.3px 413.77px; transform: rotate(-2.88deg);" class="animable"></circle></g><polyline points="63.06 420.13 52.3 413.77 48.87 434.43" style="fill: none; stroke: rgb(38, 50, 56); stroke-linecap: round; stroke-linejoin: round; transform-origin: 55.965px 424.1px;" id="elym89o7sjj4c" class="animable"></polyline><path d="M51.2,412.78a1.47,1.47,0,0,0,.1,2.09,1.48,1.48,0,1,0,2-2.2A1.47,1.47,0,0,0,51.2,412.78Z" style="fill: rgb(133, 133, 133); stroke: rgb(38, 50, 56); stroke-linecap: round; stroke-linejoin: round; transform-origin: 52.299px 413.769px;" id="eltb70eo2d41" class="animable"></path><g id="elniynqahnyke"><circle cx="404.34" cy="114.1" r="40.84" style="fill: rgb(133, 133, 133); stroke: rgb(38, 50, 56); stroke-linecap: round; stroke-linejoin: round; transform-origin: 404.34px 114.1px; transform: rotate(-4.21deg);" class="animable"></circle></g><g id="elbj6m44up184"><circle cx="405.03" cy="114.69" r="35.74" style="fill: rgb(255, 255, 255); stroke: rgb(38, 50, 56); stroke-linecap: round; stroke-linejoin: round; transform-origin: 405.03px 114.69px; transform: rotate(-3.68deg);" class="animable"></circle></g><polyline points="396.05 130.98 405.03 114.69 374.16 110.51" style="fill: none; stroke: rgb(38, 50, 56); stroke-linecap: round; stroke-linejoin: round; transform-origin: 389.595px 120.745px;" id="elii60g4pzc" class="animable"></polyline><path d="M406.46,113a2.21,2.21,0,1,0,.25,3.11A2.2,2.2,0,0,0,406.46,113Z" style="fill: rgb(133, 133, 133); stroke: rgb(38, 50, 56); stroke-linecap: round; stroke-linejoin: round; transform-origin: 405.027px 114.68px;" id="elyedym5si7s" class="animable"></path><circle cx="329.29" cy="244.58" r="27.45" style="fill: rgb(0, 255, 136); stroke: rgb(38, 50, 56); stroke-miterlimit: 10; transform-origin: 329.29px 244.58px;" id="elem98ggr9g5r" class="animable"></circle><circle cx="329.72" cy="245.01" r="24.02" style="fill: rgb(255, 255, 255); stroke: rgb(38, 50, 56); stroke-linecap: round; stroke-linejoin: round; transform-origin: 329.72px 245.01px;" id="elh3ij3k81zf" class="animable"></circle><polyline points="322.78 255.41 329.72 245.01 309.28 240.46" style="fill: none; stroke: rgb(38, 50, 56); stroke-linecap: round; stroke-linejoin: round; transform-origin: 319.5px 247.935px;" id="elcv87kgexm8g" class="animable"></polyline><path d="M330.77,244a1.48,1.48,0,1,0,0,2.1A1.48,1.48,0,0,0,330.77,244Z" style="fill: rgb(133, 133, 133); stroke: rgb(38, 50, 56); stroke-linecap: round; stroke-linejoin: round; transform-origin: 329.727px 245.05px;" id="elw1p6y3ocpur" class="animable"></path><g id="elg5jh7ondipw"><circle cx="293.24" cy="75.29" r="27.45" style="fill: rgb(0, 255, 136); stroke: rgb(38, 50, 56); stroke-miterlimit: 10; transform-origin: 293.24px 75.29px; transform: rotate(-68.34deg);" class="animable"></circle></g><g id="elhs5hwzklpkc"><circle cx="293.65" cy="74.84" r="24.02" style="fill: rgb(255, 255, 255); stroke: rgb(38, 50, 56); stroke-linecap: round; stroke-linejoin: round; transform-origin: 293.65px 74.84px; transform: rotate(-47.97deg);" class="animable"></circle></g><polyline points="304.42 81.2 293.65 74.84 290.22 95.5" style="fill: none; stroke: rgb(38, 50, 56); stroke-linecap: round; stroke-linejoin: round; transform-origin: 297.32px 85.17px;" id="elgm6vadipnig" class="animable"></polyline><path d="M292.55,73.84a1.48,1.48,0,1,0,2.1-.1A1.49,1.49,0,0,0,292.55,73.84Z" style="fill: rgb(133, 133, 133); stroke: rgb(38, 50, 56); stroke-linecap: round; stroke-linejoin: round; transform-origin: 293.65px 74.8327px;" id="el6x7gpuwdlt" class="animable"></path><g id="el7oeh432zmme"><circle cx="459.78" cy="409.22" r="27.45" style="fill: rgb(133, 133, 133); stroke: rgb(38, 50, 56); stroke-linecap: round; stroke-linejoin: round; transform-origin: 459.78px 409.22px; transform: rotate(-54.76deg);" class="animable"></circle></g><g id="elaf3hjteo9ha"><circle cx="460.19" cy="408.76" r="24.02" style="fill: rgb(255, 255, 255); stroke: rgb(38, 50, 56); stroke-linecap: round; stroke-linejoin: round; transform-origin: 460.19px 408.76px; transform: rotate(-43.58deg);" class="animable"></circle></g><polyline points="470.95 415.12 460.19 408.76 456.76 429.42" style="fill: none; stroke: rgb(38, 50, 56); stroke-linecap: round; stroke-linejoin: round; transform-origin: 463.855px 419.09px;" id="el15hl4wh8fyr" class="animable"></polyline><path d="M459.09,407.76a1.48,1.48,0,1,0,2.1-.1A1.49,1.49,0,0,0,459.09,407.76Z" style="fill: rgb(133, 133, 133); stroke: rgb(38, 50, 56); stroke-linecap: round; stroke-linejoin: round; transform-origin: 460.19px 408.753px;" id="eluae8ktzi78" class="animable"></path><g id="eleofvs3o1xgn"><circle cx="83.63" cy="137.4" r="27.45" style="fill: rgb(133, 133, 133); stroke: rgb(38, 50, 56); stroke-linecap: round; stroke-linejoin: round; transform-origin: 83.63px 137.4px; transform: rotate(-80.41deg);" class="animable"></circle></g><g id="elp9iio8444lt"><circle cx="84.04" cy="136.94" r="24.02" style="fill: rgb(255, 255, 255); stroke: rgb(38, 50, 56); stroke-linecap: round; stroke-linejoin: round; transform-origin: 84.04px 136.94px; transform: rotate(-1.71836deg);" class="animable"></circle></g><polyline points="94.81 143.3 84.04 136.94 80.61 157.6" style="fill: none; stroke: rgb(38, 50, 56); stroke-linecap: round; stroke-linejoin: round; transform-origin: 87.71px 147.27px;" id="elvv2b52tf6y9" class="animable"></polyline><path d="M82.94,135.94a1.48,1.48,0,1,0,2.1-.1A1.49,1.49,0,0,0,82.94,135.94Z" style="fill: rgb(133, 133, 133); stroke: rgb(38, 50, 56); stroke-linecap: round; stroke-linejoin: round; transform-origin: 84.0396px 136.933px;" id="el39g2bup3unn" class="animable"></path></g><defs>     <filter id="active" height="200%">         <feMorphology in="SourceAlpha" result="DILATED" operator="dilate" radius="2"></feMorphology>                <feFlood flood-color="#32DFEC" flood-opacity="1" result="PINK"></feFlood>        <feComposite in="PINK" in2="DILATED" operator="in" result="OUTLINE"></feComposite>        <feMerge>            <feMergeNode in="OUTLINE"></feMergeNode>            <feMergeNode in="SourceGraphic"></feMergeNode>        </feMerge>    </filter>    <filter id="hover" height="200%">        <feMorphology in="SourceAlpha" result="DILATED" operator="dilate" radius="2"></feMorphology>                <feFlood flood-color="#ff0000" flood-opacity="0.5" result="PINK"></feFlood>        <feComposite in="PINK" in2="DILATED" operator="in" result="OUTLINE"></feComposite>        <feMerge>            <feMergeNode in="OUTLINE"></feMergeNode>            <feMergeNode in="SourceGraphic"></feMergeNode>        </feMerge>            <feColorMatrix type="matrix" values="0   0   0   0   0                0   1   0   0   0                0   0   0   0   0                0   0   0   1   0 "></feColorMatrix>    </filter></defs></svg>